<svg width="64" height="64" viewBox="0 0 64 64" fill="none" xmlns="http://www.w3.org/2000/svg">
<rect width="64" height="64" fill="#6200FF"/>
<path d="M17.0485 50.168C16.3445 50.168 15.7365 50.136 15.2245 50.072C14.6912 50.008 14.2325 49.9333 13.8485 49.848V45.048C14.1685 45.112 14.5098 45.176 14.8725 45.24C15.2138 45.3253 15.5872 45.368 15.9925 45.368C16.7818 45.368 17.3578 45.2187 17.7205 44.92C18.0832 44.6213 18.3178 44.1627 18.4245 43.544C18.5312 42.9467 18.5845 42.2 18.5845 41.304V20.152H25.1445V40.76C25.1445 43.0427 24.8032 44.8773 24.1205 46.264C23.4378 47.6507 22.4885 48.6427 21.2725 49.24C20.0565 49.8587 18.6485 50.168 17.0485 50.168ZM42.546 43L41.778 38.712H35.282L34.45 43H27.25L33.938 20.056H42.898L49.682 43H42.546ZM39.634 29.848C39.5273 29.336 39.3993 28.76 39.25 28.12C39.1007 27.48 38.9513 26.8187 38.802 26.136C38.674 25.432 38.5673 24.7707 38.482 24.152C38.3967 24.7707 38.29 25.4213 38.162 26.104C38.034 26.7867 37.906 27.448 37.778 28.088C37.65 28.728 37.522 29.304 37.394 29.816L36.498 33.656H40.53L39.634 29.848Z" fill="white"/>
</svg>
