<svg width="16" height="16" viewBox="0 0 16 16" fill="none" xmlns="http://www.w3.org/2000/svg">
<g clip-path="url(#clip0_401_32)">
<path fill-rule="evenodd" clip-rule="evenodd" d="M3 2H5L5 12.5C5 13.3284 4.32843 14 3.5 14C2.67157 14 2 13.3284 2 12.5L2 10H0V12.5C0 14.433 1.567 16 3.5 16C5.433 16 7 14.433 7 12.5L7 0H3V2ZM14 2.12602C12.2748 2.57006 11 4.13616 11 6V9H14V2.12602ZM11 16.1875V11H14V16H16V0H15C11.6863 0 9 2.68629 9 6V16.1875H11Z" fill="url(#paint0_linear_401_32)"/>
<rect x="3" y="6" width="1" height="1" fill="#818181"/>
<rect x="12" y="6" width="1" height="1" fill="#818181"/>
</g>
<defs>
<linearGradient id="paint0_linear_401_32" x1="0" y1="0" x2="16" y2="16" gradientUnits="userSpaceOnUse">
<stop stop-color="#8A8AFF"/>
<stop offset="1" stop-color="#2E2EFF"/>
</linearGradient>
<clipPath id="clip0_401_32">
<rect width="16" height="16" fill="white"/>
</clipPath>
</defs>
</svg>
