<svg width="16" height="16" viewBox="0 0 16 16" fill="none" xmlns="http://www.w3.org/2000/svg">
<path d="M6.44444 7.5C7.30556 7.05556 7.77778 6.41667 7.77778 5.44444C7.77778 3.47222 6.30556 3 4.63889 3H0V12.8333H4.75C6.55556 12.8333 8.22222 11.9722 8.22222 9.97222C8.22222 8.75 7.63889 7.83333 6.44444 7.5ZM2.13889 4.66667H4.19444C4.97222 4.66667 5.66667 4.88889 5.66667 5.80556C5.66667 6.63889 5.11111 6.97222 4.33333 6.97222H2.13889V4.66667ZM4.47222 11.1667H2.13889V8.44444H4.5C5.47222 8.44444 6.05556 8.86111 6.05556 9.86111C6.05556 10.8611 5.33333 11.1667 4.47222 11.1667ZM14.4167 4.47222V3.5H10.4444V4.47222H14.4167ZM16 9.38889C16 7.27778 14.75 5.5 12.5278 5.5C10.3333 5.5 8.86111 7.13889 8.86111 9.27778C8.86111 11.5 10.2778 13.0278 12.5278 13.0278C14.2222 13.0278 15.3333 12.25 15.8611 10.6389H14.1389C13.9444 11.25 13.1667 11.5556 12.5833 11.5556C11.4444 11.5556 10.8333 10.8889 10.8333 9.75H15.9722C15.9722 9.63889 16 9.5 16 9.38889ZM10.8333 8.5C10.8889 7.58333 11.5278 7 12.4444 7C13.4444 7 13.9444 7.55556 14.0278 8.5H10.8333Z" fill="#2151ff"/>
</svg>
