<svg width="16" height="16" viewBox="0 0 16 16" fill="none" xmlns="http://www.w3.org/2000/svg">
<path d="M0 3C0 1.89543 0.895431 1 2 1H14C15.1046 1 16 1.89543 16 3V3H0V3Z" fill="white"/>
<path d="M0.5 6.5H15.5V14C15.5 14.8284 14.8284 15.5 14 15.5H2C1.17157 15.5 0.5 14.8284 0.5 14V6.5Z" fill="white" stroke="white"/>
<rect x="7" y="8" width="2" height="6" fill="black"/>
<rect x="5" y="10" width="6" height="2" fill="black"/>
<path d="M3 1C3 0.447715 3.44772 0 4 0V0C4.55228 0 5 0.447715 5 1V2H3V1Z" fill="white"/>
<path d="M11 1C11 0.447715 11.4477 0 12 0V0C12.5523 0 13 0.447715 13 1V2H11V1Z" fill="white"/>
</svg>
