<svg width="32" height="32" viewBox="0 0 32 32" fill="none" xmlns="http://www.w3.org/2000/svg">
<rect width="32" height="32" rx="16" fill="black"/>
<path d="M8 11C8 10.4477 8.44772 10 9 10H23C23.5523 10 24 10.4477 24 11H8Z" fill="white"/>
<path d="M8.5 14.5H23.5V22C23.5 22.8284 22.8284 23.5 22 23.5H10C9.17157 23.5 8.5 22.8284 8.5 22V14.5Z" fill="white" stroke="white"/>
<rect x="15" y="16" width="2" height="6" fill="black"/>
<rect x="13" y="18" width="6" height="2" fill="black"/>
<path d="M11 9C11 8.44772 11.4477 8 12 8C12.5523 8 13 8.44772 13 9V10H11V9Z" fill="white"/>
<path d="M19 9C19 8.44772 19.4477 8 20 8C20.5523 8 21 8.44772 21 9V10H19V9Z" fill="white"/>
</svg>
