<svg width="16" height="16" viewBox="0 0 16 16" fill="none" xmlns="http://www.w3.org/2000/svg">
<path d="M8 3.5C8 4.88071 6.88071 6 5.5 6C4.11929 6 3 4.88071 3 3.5C3 2.11929 4.11929 1 5.5 1C6.88071 1 8 2.11929 8 3.5Z" fill="#CCC8C4"/>
<path d="M10.5 6C11.8807 6 13 4.88071 13 3.5C13 2.11929 11.8807 1 10.5 1C9.11929 1 8 2.11929 8 3.5C8 4.88071 9.11929 6 10.5 6Z" fill="#CCC8C4"/>
<path d="M8 8.5C8 7.11929 9.11929 6 10.5 6C11.8807 6 13 7.11929 13 8.5C13 9.88071 11.8807 11 10.5 11C9.11929 11 8 9.88071 8 8.5Z" fill="#CCC8C4"/>
<path d="M5.5 11C4.11929 11 3 9.88071 3 8.5C3 7.11929 4.11929 6 5.5 6C6.88071 6 8 7.11929 8 8.5C8 9.88071 6.88071 11 5.5 11Z" fill="#CCC8C4"/>
<path d="M5.5 11C6.88071 11 8 12.1193 8 13.5C8 14.8807 6.88071 16 5.5 16C4.11929 16 3 14.8807 3 13.5C3 12.1193 4.11929 11 5.5 11Z" fill="#CCC8C4"/>
</svg>
