<svg width="16" height="16" viewBox="0 0 16 16" fill="none" xmlns="http://www.w3.org/2000/svg">
<path fill-rule="evenodd" clip-rule="evenodd" d="M5.5 1C4.11929 1 3 2.11929 3 3.5C3 4.88071 4.11929 6 5.5 6C4.11929 6 3 7.11929 3 8.5C3 9.88071 4.11929 11 5.5 11C4.11929 11 3 12.1193 3 13.5C3 14.8807 4.11929 16 5.5 16C6.88071 16 8 14.8807 8 13.5V11V8.5C8 9.88071 9.11929 11 10.5 11C11.8807 11 13 9.88071 13 8.5C13 7.11929 11.8807 6 10.5 6C11.8807 6 13 4.88071 13 3.5C13 2.11929 11.8807 1 10.5 1H5.5ZM10.5 6C9.11929 6 8 7.11929 8 8.5V6H10.5Z" fill="#D9D9D9"/>
</svg>
