<svg width="16" height="16" viewBox="0 0 16 16" fill="none" xmlns="http://www.w3.org/2000/svg">
<path d="M11.0312 5.34375C12.5 5.34375 13.6875 4.15625 13.6875 2.6875C13.6875 1.21875 12.5 0 11.0312 0H5.6875C4.21875 0 3.03125 1.21875 3.03125 2.6875C3.03125 4.15625 4.21875 5.34375 5.6875 5.34375C4.21875 5.34375 3 6.53125 3 8C3 9.5 4.21875 10.6875 5.6875 10.6875C4.21875 10.6875 3 11.875 3 13.3438C3 14.8125 4.21875 16 5.6875 16C7.15625 16 8.34375 14.8125 8.34375 13.3438V5.34375H11.0312ZM11.0312 5.34375C9.53125 5.34375 8.34375 6.53125 8.34375 8C8.34375 9.5 9.53125 10.6875 11.0312 10.6875C12.5 10.6875 13.6875 9.5 13.6875 8C13.6875 6.53125 12.5 5.34375 11.0312 5.34375Z" fill="#6200FF"/>
</svg>
