<svg width="16" height="16" viewBox="0 0 16 16" fill="none" xmlns="http://www.w3.org/2000/svg">
<path d="M5.32258 12.5806C5.32258 12.6452 5.25806 12.6774 5.16129 12.6774C5.06452 12.7097 5 12.6452 5 12.5806C5 12.5161 5.06452 12.4516 5.16129 12.4516C5.25806 12.4516 5.32258 12.5161 5.32258 12.5806ZM4.32258 12.4194C4.35484 12.3548 4.45161 12.3226 4.54839 12.3548C4.64516 12.3871 4.67742 12.4516 4.67742 12.5161C4.64516 12.5806 4.54839 12.6129 4.48387 12.5806C4.3871 12.5806 4.32258 12.4839 4.32258 12.4194ZM5.77419 12.3871C5.83871 12.3548 5.93548 12.4194 5.93548 12.4839C5.96774 12.5484 5.90323 12.5806 5.80645 12.6129C5.70968 12.6452 5.6129 12.6129 5.6129 12.5484C5.6129 12.4516 5.67742 12.3871 5.77419 12.3871ZM7.87097 0C12.3548 0 16 3.41935 16 7.87097C16 11.4516 13.8065 14.5161 10.5806 15.5806C10.1613 15.6774 10 15.4194 10 15.1935C10 14.9355 10.0323 13.5806 10.0323 12.5161C10.0323 11.7419 9.77419 11.2581 9.48387 11C11.2903 10.8065 13.1935 10.5484 13.1935 7.45161C13.1935 6.54839 12.871 6.12903 12.3548 5.54839C12.4194 5.32258 12.7097 4.48387 12.2581 3.35484C11.5806 3.12903 10.0323 4.22581 10.0323 4.22581C9.3871 4.03226 8.70968 3.96774 8 3.96774C7.32258 3.96774 6.64516 4.03226 6 4.22581C6 4.22581 4.41935 3.16129 3.77419 3.35484C3.32258 4.48387 3.58065 5.32258 3.67742 5.54839C3.16129 6.12903 2.90323 6.54839 2.90323 7.45161C2.90323 10.5484 4.74194 10.8065 6.54839 11C6.29032 11.2258 6.09677 11.5806 6.03226 12.0968C5.54839 12.3226 4.3871 12.6774 3.67742 11.4194C3.22581 10.6452 2.41935 10.5806 2.41935 10.5806C1.64516 10.5806 2.3871 11.0968 2.3871 11.0968C2.90323 11.3226 3.25806 12.2581 3.25806 12.2581C3.74194 13.7097 6 13.2258 6 13.2258C6 13.9032 6 15 6 15.2258C6 15.4194 5.87097 15.6774 5.45161 15.6129C2.22581 14.5161 0 11.4516 0 7.87097C0 3.41935 3.41935 0 7.87097 0ZM3.12903 11.129C3.16129 11.0968 3.22581 11.129 3.29032 11.1613C3.35484 11.2258 3.35484 11.3226 3.32258 11.3548C3.25806 11.3871 3.19355 11.3548 3.12903 11.3226C3.09677 11.2581 3.06452 11.1613 3.12903 11.129ZM2.77419 10.871C2.80645 10.8387 2.83871 10.8387 2.90323 10.871C2.96774 10.9032 3 10.9355 3 10.9677C2.96774 11.0323 2.90323 11.0323 2.83871 11C2.77419 10.9677 2.74194 10.9355 2.77419 10.871ZM3.80645 12.0323C3.87097 11.9677 3.96774 12 4.03226 12.0645C4.09677 12.129 4.09677 12.2258 4.06452 12.2581C4.03226 12.3226 3.93548 12.2903 3.87097 12.2258C3.77419 12.1613 3.77419 12.0645 3.80645 12.0323ZM3.45161 11.5484C3.51613 11.5161 3.58065 11.5484 3.64516 11.6129C3.67742 11.6774 3.67742 11.7742 3.64516 11.8065C3.58065 11.8387 3.51613 11.8065 3.45161 11.7419C3.3871 11.6774 3.3871 11.5806 3.45161 11.5484Z" fill="#CCC8C4"/>
</svg>
