<svg width="16" height="16" viewBox="0 0 16 16" fill="none" xmlns="http://www.w3.org/2000/svg">
<path fill-rule="evenodd" clip-rule="evenodd" d="M3 0C1.34315 0 0 1.34315 0 3V13C0 14.6569 1.34315 16 3 16H13C14.6569 16 16 14.6569 16 13V3C16 1.34315 14.6569 0 13 0H3ZM3.5 5C4.32843 5 5 4.32843 5 3.5C5 2.67157 4.32843 2 3.5 2C2.67157 2 2 2.67157 2 3.5C2 4.32843 2.67157 5 3.5 5ZM5.99997 9.50001L6 9.48422V6H8.06198C8.6361 5.68142 9.29685 5.5 9.99998 5.5C12.2091 5.5 14 7.29087 14 9.50001V14H11V9.50001C11 8.94772 10.5523 8.5 9.99998 8.5C9.45032 8.5 9.00424 8.94346 9 9.49212V14H6L5.99997 9.50001ZM2 6H5V14H2V6Z" fill="#CCC8C4"/>
</svg>
