<svg width="16" height="16" viewBox="0 0 16 16" fill="none" xmlns="http://www.w3.org/2000/svg">
<path d="M14 1H1.96875C1.4375 1 1 1.46875 1 2.03125V14C1 14.5625 1.4375 15 1.96875 15H14C14.5312 15 15 14.5625 15 14V2.03125C15 1.46875 14.5312 1 14 1ZM5.21875 13H3.15625V6.34375H5.21875V13ZM4.1875 5.40625C3.5 5.40625 2.96875 4.875 2.96875 4.21875C2.96875 3.5625 3.5 3 4.1875 3C4.84375 3 5.375 3.5625 5.375 4.21875C5.375 4.875 4.84375 5.40625 4.1875 5.40625ZM13 13H10.9062V9.75C10.9062 9 10.9062 8 9.84375 8C8.75 8 8.59375 8.84375 8.59375 9.71875V13H6.53125V6.34375H8.5V7.25H8.53125C8.8125 6.71875 9.5 6.15625 10.5 6.15625C12.5938 6.15625 13 7.5625 13 9.34375V13Z" fill="#2151ff"/>
</svg>
