<svg width="16" height="16" viewBox="0 0 16 16" fill="currentColor" xmlns="http://www.w3.org/2000/svg">
<g id="Class=0">
<g clip-path="url(#clip0_333_3028)">
<g id="Union">
<path d="M13.8858 9.67316L15.8477 10.0613C15.9476 9.55633 16 9.03428 16 8.5C16 7.96572 15.9476 7.44367 15.8477 6.9387L13.8858 7.32684C13.9605 7.70466 14 8.09673 14 8.5C14 8.90327 13.9605 9.29534 13.8858 9.67316Z" fill="currentColor"/>
<path d="M12.9906 5.16771L14.6525 4.05507C14.0685 3.18266 13.3173 2.43154 12.4449 1.84748L11.3323 3.50941C11.9875 3.94804 12.552 4.51254 12.9906 5.16771Z" fill="currentColor"/>
<path d="M9.17316 2.61425L9.5613 0.652272C9.05633 0.552376 8.53428 0.5 8 0.5C7.46572 0.5 6.94367 0.552376 6.4387 0.652272L6.82684 2.61425C7.20466 2.5395 7.59673 2.5 8 2.5C8.40327 2.5 8.79534 2.5395 9.17316 2.61425Z" fill="currentColor"/>
<path d="M4.66771 3.50941L3.55507 1.84748C2.68266 2.43154 1.93154 3.18266 1.34748 4.05508L3.00941 5.16771C3.44804 4.51254 4.01254 3.94804 4.66771 3.50941Z" fill="currentColor"/>
<path d="M0 8.5C0 7.96572 0.0523755 7.44367 0.152272 6.9387L2.11425 7.32684C2.0395 7.70466 2 8.09673 2 8.5C2 8.90327 2.0395 9.29534 2.11425 9.67316L0.152272 10.0613C0.0523756 9.55633 0 9.03428 0 8.5Z" fill="currentColork"/>
<path d="M3.00941 11.8323L1.34748 12.9449C1.93154 13.8173 2.68266 14.5685 3.55508 15.1525L4.66771 13.4906C4.01254 13.052 3.44804 12.4875 3.00941 11.8323Z" fill="currentColor"/>
<path d="M6.82684 14.3858L6.4387 16.3477C6.94367 16.4476 7.46572 16.5 8 16.5C8.53428 16.5 9.05633 16.4476 9.5613 16.3477L9.17316 14.3858C8.79534 14.4605 8.40327 14.5 8 14.5C7.59673 14.5 7.20466 14.4605 6.82684 14.3858Z" fill="currentColor"/>
<path d="M11.3323 13.4906L12.4449 15.1525C13.3173 14.5685 14.0685 13.8173 14.6525 12.9449L12.9906 11.8323C12.552 12.4875 11.9875 13.052 11.3323 13.4906Z" fill="currentColor"/>
<path fill-rule="evenodd" clip-rule="evenodd" d="M13 8.5C13 11.2614 10.7614 13.5 8 13.5C5.23858 13.5 3 11.2614 3 8.5C3 5.73858 5.23858 3.5 8 3.5C10.7614 3.5 13 5.73858 13 8.5ZM11 8.5C11 10.1569 9.65685 11.5 8 11.5C6.34315 11.5 5 10.1569 5 8.5C5 6.84315 6.34315 5.5 8 5.5C9.65685 5.5 11 6.84315 11 8.5Z" fill="currentColor"/>
</g>
</g>
</g>
<defs>
<clipPath id="clip0_333_3028">
<rect width="16" height="16" rx="8" fill="black"/>
</clipPath>
</defs>
</svg>
